<svg width="41" height="41" viewBox="0 0 41 41" fill="none" xmlns="http://www.w3.org/2000/svg">
<g filter="url(#filter0_d_36_65)">
<path d="M33.4833 32.375L22.7208 22.6625C21.8667 23.2792 20.8844 23.7674 19.774 24.1271C18.6635 24.4868 17.4819 24.6667 16.2292 24.6667C13.1257 24.6667 10.4991 23.6967 8.34948 21.7568C6.19983 19.8168 5.125 17.4465 5.125 14.6458C5.125 11.8451 6.19983 9.47483 8.34948 7.5349C10.4991 5.59497 13.1257 4.625 16.2292 4.625C19.3326 4.625 21.9592 5.59497 24.1089 7.5349C26.2585 9.47483 27.3333 11.8451 27.3333 14.6458C27.3333 15.7764 27.134 16.8427 26.7354 17.8448C26.3368 18.8469 25.7958 19.7333 25.1125 20.5042L35.875 30.2167L33.4833 32.375ZM16.2292 21.5833C18.3646 21.5833 20.1797 20.9089 21.6745 19.5599C23.1693 18.2109 23.9167 16.5729 23.9167 14.6458C23.9167 12.7188 23.1693 11.0807 21.6745 9.73177C20.1797 8.38281 18.3646 7.70833 16.2292 7.70833C14.0938 7.70833 12.2786 8.38281 10.7839 9.73177C9.28906 11.0807 8.54167 12.7188 8.54167 14.6458C8.54167 16.5729 9.28906 18.2109 10.7839 19.5599C12.2786 20.9089 14.0938 21.5833 16.2292 21.5833Z" fill="#FEF7FF"/>
</g>
<defs>
<filter id="filter0_d_36_65" x="-4" y="0" width="49" height="45" filterUnits="userSpaceOnUse" color-interpolation-filters="sRGB">
<feFlood flood-opacity="0" result="BackgroundImageFix"/>
<feColorMatrix in="SourceAlpha" type="matrix" values="0 0 0 0 0 0 0 0 0 0 0 0 0 0 0 0 0 0 127 0" result="hardAlpha"/>
<feOffset dy="4"/>
<feGaussianBlur stdDeviation="2"/>
<feComposite in2="hardAlpha" operator="out"/>
<feColorMatrix type="matrix" values="0 0 0 0 0 0 0 0 0 0 0 0 0 0 0 0 0 0 0.25 0"/>
<feBlend mode="normal" in2="BackgroundImageFix" result="effect1_dropShadow_36_65"/>
<feBlend mode="normal" in="SourceGraphic" in2="effect1_dropShadow_36_65" result="shape"/>
</filter>
</defs>
</svg>
